<svg width="3712" height="3713" xmlns="http://www.w3.org/2000/svg" xmlns:xlink="http://www.w3.org/1999/xlink" overflow="hidden"><defs><clipPath id="clip0"><rect x="1444" y="0" width="3712" height="3713"/></clipPath></defs><g clip-path="url(#clip0)" transform="translate(-1444 0)"><path d="M1444 1856.5C1444 831.183 2274.96-2.36357e-13 3300-4.72714e-13 4325.04-9.45429e-13 5156 831.183 5156 1856.5 5156 2881.82 4325.04 3713 3300 3713 2274.96 3713 1444 2881.82 1444 1856.5Z" fill="#F2F2F2" fill-rule="evenodd"/><path d="M3300 974.9C2990.13 974.9 2738.93 1226.07 2738.93 1535.9L2738.93 2176.1C2738.93 2485.93 2990.13 2737.1 3300 2737.1 3609.87 2737.1 3861.07 2485.93 3861.07 2176.1L3861.07 1535.9C3861.07 1226.07 3609.87 974.9 3300 974.9ZM3300 767C3724.71 767 4069 1111.25 4069 1535.9L4069 2176.1C4069 2600.75 3724.71 2945 3300 2945 2875.29 2945 2531 2600.75 2531 2176.1L2531 1535.9C2531 1111.25 2875.29 767 3300 767Z" fill-rule="evenodd"/><path d="M3196 871C3196 813.562 3242.56 767 3300 767L3300 767C3357.44 767 3404 813.562 3404 871L3404 1493C3404 1550.44 3357.44 1597 3300 1597L3300 1597C3242.56 1597 3196 1550.44 3196 1493Z" fill-rule="evenodd"/></g></svg>